# xmcd CD database file
#
# Track frame offsets:
#	150
#	22324
#	34598
#	58465
#	70291
#	86993
#	101282
#	118846
#	135857
#	153983
#	168320
#	185684
#	205067
#
# Disc length: 3164 seconds
#
# Revision: 3
# Processed by: cddbd v1.5.2PL0 Copyright (c) Steve Scherf et al.
# Submitted via: CDex 1.51
#
DISCID=b70c5a0d
DTITLE=Eleanor Shanley - Eleanor Shanley and Friends
DYEAR=2001
DGENRE=Celtic
TTITLE0=A Couple More Years (with Ronnie Drew)
TTITLE1=Still I Love Him (with Geraldine King)
TTITLE2=The Bantry Girls Lament (with Eddi Reader)
TTITLE3=My Gravity (with Johnny Duhan)
TTITLE4=The Summer Of My Dreams
TTITLE5=Making Plans (with Dessie O`Halloran)
TTITLE6=All Fall Down (with Ray Lynam)
TTITLE7=Whistle Whistle Daughter (with Dolores Keane and Sharon Shannon)
TTITLE8=Seven Spanish Angels
TTITLE9=Maybe (with Christie Hennessy)
TTITLE10=If Anything Happened To You (with Charlie McGettigan)
TTITLE11=Beautiful Dreamer
TTITLE12=Hard Times (with De Dannan and Harlem Gospel Singers)
EXTD=YEAR: 2001
EXTT0=
EXTT1=
EXTT2=
EXTT3=
EXTT4=
EXTT5=
EXTT6=
EXTT7=
EXTT8=
EXTT9=
EXTT10=
EXTT11=
EXTT12=
PLAYORDER=
